<svg xmlns="http://www.w3.org/2000/svg" width="16" height="16" viewBox="0 0 16 16">
	<defs>
		<style>
			.a-icon-official-bilibili{
					fill:#f06198;
			}
			.b-icon-official-bilibili{fill:#fff;}</style>
	</defs>
	<g transform="translate(-0.201)">
		<rect class="a-icon-official-bilibili" width="16" height="16" rx="2" transform="translate(0.201)"/>
		<path class="b-icon-official-bilibili" d="M9.982,1.813a2.8,2.8,0,0,1,.31-.034,5.816,5.816,0,0,1,.1.882c-.031.006-.251.056-.251.056-.017-.116-.161-.831-.163-.9m.423-.082.116.916c.059,0,.3-.02.321-.023-.034-.347-.093-.893-.093-.893a.882.882,0,0,0-.344,0M10.176,3a2,2,0,0,1,.71-.068c.1.347.271,2.291.287,2.37-.118.014-.507.048-.538.056C10.61,5.214,10.176,3.1,10.176,3m1.93-1.167a3.04,3.04,0,0,1,.31-.008,7.2,7.2,0,0,1,0,.888l-.251.023c-.006-.113-.068-.826-.062-.9m.426-.023.023.9c.059,0,.3.014.321.011-.006-.347,0-.893,0-.893a1.557,1.557,0,0,0-.344-.023m-.364,1.215a2.033,2.033,0,0,1,.713.014c.039.406.034,2.3.039,2.376-.121,0-.507.006-.538.011-.006-.147-.223-2.308-.214-2.4M10.931.7c.307,1.567.541,4.244.55,4.416,0,0,.242.006.516.023-.161-1.688-.358-4.385-.355-4.472-.068-.076-.71.034-.71.034m-.676,3.706c-.059-.44-1.632-.938-2.517-.778,0,0-.11-.969-.152-1.908C7.55.917,7.581.133,7.589,0a6.676,6.676,0,0,0-1.04.389,40.677,40.677,0,0,1,.71,5.354A4.848,4.848,0,0,0,8.553,5.64c.817-.158,1.784-.651,1.7-1.232M8.333,5.2,8.2,4.206a7.2,7.2,0,0,1,.972.355,9.064,9.064,0,0,1-.834.64m-4.9-3.387a2.8,2.8,0,0,1,.31-.034,5.816,5.816,0,0,1,.1.882c-.031.006-.251.056-.251.056-.017-.116-.161-.831-.163-.9m.423-.082.116.916c.059,0,.3-.02.321-.023-.037-.347-.093-.893-.093-.893a.882.882,0,0,0-.344,0M3.627,3a2,2,0,0,1,.71-.068c.1.347.271,2.291.287,2.37-.118.014-.507.048-.538.056C4.061,5.214,3.627,3.1,3.627,3m1.93-1.167a3.04,3.04,0,0,1,.31-.008,7.2,7.2,0,0,1,0,.888l-.251.023c-.006-.113-.065-.826-.062-.9m.426-.023.023.9c.059,0,.3.014.321.011-.006-.347,0-.893,0-.893a1.749,1.749,0,0,0-.344-.023M5.619,3.028a2.033,2.033,0,0,1,.713.014c.039.406.034,2.3.039,2.376-.121,0-.507.006-.538.011,0-.147-.223-2.308-.214-2.4M4.382.7c.307,1.567.541,4.244.55,4.416,0,0,.242.006.516.023C5.287,3.453,5.09.756,5.092.666,5.025.593,4.382.7,4.382.7M3.706,4.408c-.059-.44-1.632-.938-2.517-.778,0,0-.11-.969-.152-1.908C1,.917,1.031.133,1.04,0A6.99,6.99,0,0,0,0,.393,40.677,40.677,0,0,1,.71,5.747,4.848,4.848,0,0,0,2,5.64c.817-.158,1.784-.651,1.7-1.232M1.784,5.2l-.138-.995a7.2,7.2,0,0,1,.972.355,9.064,9.064,0,0,1-.834.64" transform="translate(1.627 4.617)"/>
	</g>
</svg>
