<svg xmlns="http://www.w3.org/2000/svg" width="16" height="16" viewBox="0 0 16 16">
	<defs>
		<style>
			.a-icon-official-wechat {
					fill: #00b354;
			}
			.b-icon-official-wechat {
					fill: #fff;
			}
		</style>
	</defs>
	<rect class="a-icon-official-wechat" width="16" height="16" rx="2" />
	<path class="b-icon-official-wechat" d="M7.84,97.766a3.609,3.609,0,0,1,.4.025A4.094,4.094,0,0,0,4.1,94.912C1.846,94.912,0,96.447,0,98.4a3.364,3.364,0,0,0,1.64,2.768l-.41,1.233,1.433-.718a7.063,7.063,0,0,0,1.435.2c.129,0,.256-.006.382-.015a3.073,3.073,0,0,1-.127-.86A3.358,3.358,0,0,1,7.84,97.766Zm-2.2-1.111a.512.512,0,1,1,0,1.024.521.521,0,1,1,0-1.024ZM2.767,97.679a.521.521,0,1,1,0-1.024.512.512,0,0,1,0,1.024Zm8.815,3.282A3.314,3.314,0,0,0,8.1,97.987a3.012,3.012,0,1,0,0,5.949,5.141,5.141,0,0,0,1.23-.2l1.124.617-.308-1.025A3.11,3.11,0,0,0,11.582,100.962Zm-4.613-.513a.41.41,0,0,1,0-.819.42.42,0,1,1,0,.819Zm2.255,0a.41.41,0,0,1,0-.819.42.42,0,1,1,0,.819Z" transform="translate(1.728 -91.999)" />
</svg>
