<svg xmlns="http://www.w3.org/2000/svg" width="16" height="16" viewBox="0 0 16 16">
	<g transform="translate(0.367 0.342)">
		<rect width="16" height="16" rx="2" transform="translate(-0.367 -0.342)" fill="#1b1e31"/>
		<g transform="translate(3.071 2.156)">
			<path d="M1062.34,548.941c.008-.809,0-1.626.008-2.435H1064a1.9,1.9,0,0,0,.038.424l-1.133.093.093,6.488a3.137,3.137,0,0,1-.331,1.141,1.977,1.977,0,0,1-1.3.747,1.2,1.2,0,0,1-.717-.177c-.185-.1-.285-.655-.339-.8a1.358,1.358,0,0,0,1.387-.054,1.417,1.417,0,0,0,.655-1.18c-.016-1.418-.016-2.836-.016-4.246Zm2.728-.47a2.27,2.27,0,0,0,.763.316,2.021,2.021,0,0,0,.478.054v.447C1065.831,549.18,1064.8,548.88,1065.068,548.471Z" transform="translate(-1057.885 -546.506)" fill="#3fece0"/>
			<path d="M1057.428,553.381a3.02,3.02,0,0,1,2.011-.424v.509a2.976,2.976,0,0,0-1.711.678,2.734,2.734,0,0,0-.763,3.63c.116.208.339.524.285.755a2.988,2.988,0,0,1-.863-.948,3.08,3.08,0,0,1,.031-3.175A2.982,2.982,0,0,1,1057.428,553.381Z" transform="translate(-1055.963 -549.342)" fill="#3fece0"/>
			<path d="M1061.281,547.265h1.24a5.863,5.863,0,0,1,.285.663,2.868,2.868,0,0,0,.671.825.186.186,0,0,1,.054.054,2.339,2.339,0,0,0,1.24.74c.278.2.085,1.01.085,1.441a3.926,3.926,0,0,1-2.289-.786c0,1.033,0,1.988.008,3.029,0,.138.008.27,0,.416a4.516,4.516,0,0,1-.524,1.665,3.176,3.176,0,0,1-.863.979,2.761,2.761,0,0,1-1.572.54,3.534,3.534,0,0,1-.855-.07,3.68,3.68,0,0,1-1.1-.709l-.024-.023a2.4,2.4,0,0,1-.416-.578,3.144,3.144,0,0,1,.809-3.976,3.119,3.119,0,0,1,1.788-.625c.177.085.054,1.387.054,1.387a1.353,1.353,0,0,0-.7.008,1.314,1.314,0,0,0-.6.377,1.17,1.17,0,0,0-.3.37.7.7,0,0,0-.1.555,1.342,1.342,0,0,0,.254.747c.116.146.193.37.347.47a1.115,1.115,0,0,0,.462.432,1.437,1.437,0,0,0,.794.162,1.34,1.34,0,0,0,1.048-.67,1.762,1.762,0,0,0,.2-.832c0-2.273.008-6.589.008-6.589Z" transform="translate(-1056.348 -546.841)" fill="#fff"/>
			<path d="M1063.165,547.265c.146.008.285,0,.439,0a2.383,2.383,0,0,0,.432,1.357,1.046,1.046,0,0,0,.108.138,2.05,2.05,0,0,1-.733-.824,2.662,2.662,0,0,1-.246-.67Zm2.265,2.281a2.024,2.024,0,0,0,.478.054v1.672a3.9,3.9,0,0,1-2.3-.747v3.321a3.035,3.035,0,0,1-.07.747,3.086,3.086,0,0,1-1.218,1.857,2.909,2.909,0,0,1-1.094.486,3.005,3.005,0,0,1-1.434-.024,3.046,3.046,0,0,1-1.464-.878,2.908,2.908,0,0,0,1.109.478,3.543,3.543,0,0,0,.856.069,2.764,2.764,0,0,0,1.572-.54,3.18,3.18,0,0,0,.863-.979,3.4,3.4,0,0,0,.447-1.433,3.762,3.762,0,0,0,0-.417c-.015-1.025-.015-2.057-.015-3.09a3.859,3.859,0,0,0,2.281.724c-.008-.432,0-.871-.008-1.3Z" transform="translate(-1057.007 -546.841)" fill="#f12e62"/>
			<path d="M1060.769,553.671a3.31,3.31,0,0,1,.485.031v1.718a1.358,1.358,0,0,0-.724-.031,1.42,1.42,0,0,0-.824,2.2,1.553,1.553,0,0,1-.725-1.086,1.379,1.379,0,0,1,.146-.8,1.193,1.193,0,0,1,.3-.377,1.878,1.878,0,0,1,.7-.347,1.179,1.179,0,0,1,.632.016C1060.769,554.919,1060.769,553.84,1060.769,553.671Z" transform="translate(-1057.292 -549.671)" fill="#f12e62"/>
		</g>
	</g>
</svg>
