<svg xmlns="http://www.w3.org/2000/svg" xmlns:xlink="http://www.w3.org/1999/xlink" width="602.2293310504999" height="122.90625" viewBox="0 0 602.2293310504999 122.90625" fill="none"><defs><linearGradient id="linear_0" x1="-26.66732370853424%" y1="69.30123567581177%" x2="80.69780468940735%" y2="45.02229690551758%" gradientUnits="objectBoundingBox"><stop offset="0" stop-color="#FFFFFF" stop-opacity="1" /><stop offset="0.8776466846466064" stop-color="#727FFF" stop-opacity="1" /></linearGradient><linearGradient id="linear_1" x1="10.17700806260109%" y1="66.47165417671204%" x2="110.27185916900635%" y2="13.586263358592987%" gradientUnits="objectBoundingBox"><stop offset="0" stop-color="#FFFFFF" stop-opacity="1" /><stop offset="0.8333340287208557" stop-color="#727FFF" stop-opacity="1" /></linearGradient></defs><g opacity="1" transform="translate(0 0)  rotate(0 301.11466552524996 61.453125)"><g opacity="0.5" transform="translate(161.84837341308594 101.08315277099604)  rotate(0 212.00732421874977 9.69482421875)"><g opacity="1" transform="translate(0 0)  rotate(0 212.00732421874977 9.69482421875)"><path id="路径 26904" fill-rule="evenodd" style="fill:#000000" transform="translate(0 0.3466796875)  rotate(0 8.561706542968977 9.349365234375)" opacity="1" d="M9.42 0L14.23 0L17.12 18.7L12.88 18.7L12.32 14.15L6.29 14.15L4.08 18.7L0 18.7L9.42 0Z M11.2624 3.83447L12.0724 11.1245L7.60242 11.1245L11.0324 3.83447L11.2624 3.83447Z " /><path id="路径 26905" fill-rule="evenodd" style="fill:#000000" transform="translate(82.661376953125 0.3466796875)  rotate(0 8.568420410156023 9.349365234375)" opacity="1" d="M17.11 8.22C17.09 8.55 17.06 8.87 17.02 9.18C17 9.25 16.99 9.38 16.96 9.56C16.93 9.75 16.9 9.94 16.86 10.14C16.83 10.34 16.79 10.53 16.75 10.71C16.72 10.88 16.69 11.01 16.67 11.08C16.42 12.27 16.02 13.34 15.46 14.27Q14.62 15.695 13.33 16.67C12.47 17.33 11.47 17.83 10.33 18.18C9.19 18.53 7.91 18.7 6.51 18.7L0 18.7L3.29 0L9.81 0Q11.595 0 12.96 0.54C13.87 0.9 14.64 1.41 15.25 2.06C15.87 2.7 16.34 3.47 16.66 4.38C16.98 5.28 17.14 6.27 17.14 7.36C17.14 7.6 17.13 7.89 17.11 8.22Z M10.3534 3.60109C10.9134 3.76109 11.3934 4.00109 11.7934 4.34109C12.1934 4.68109 12.5034 5.11109 12.7234 5.64109C12.9434 6.17109 13.0534 6.80109 13.0534 7.55109C13.0534 7.73109 13.0434 7.96109 13.0334 8.23109C13.0234 8.51109 13.0034 8.75109 12.9734 8.97109C12.9634 9.04109 12.9434 9.16109 12.9234 9.33109C12.8934 9.49109 12.8634 9.66109 12.8234 9.84109C12.7834 10.0211 12.7534 10.1911 12.7134 10.3511C12.6834 10.5111 12.6634 10.6211 12.6634 10.6711C12.4734 11.4811 12.1834 12.1811 11.7934 12.7711C11.4034 13.3611 10.9234 13.8511 10.3734 14.2211C9.81345 14.6111 9.18345 14.8811 8.47345 15.0611Q7.40845 15.3311 6.19345 15.3311L4.53345 15.3311L6.71345 3.37109L8.50345 3.37109C9.18345 3.37109 9.79345 3.45109 10.3534 3.60109Z " /><path id="路径 26906" fill-rule="evenodd" style="fill:#000000" transform="translate(164.4425048828125 0.3466796875)  rotate(0 9.384094238281023 9.349365234375)" opacity="1" d="M5.39 10.88L3.97 18.7L0 18.7L3.29 0L7.26 0L5.96 7.48L13.47 7.48L14.78 0L18.77 0L15.47 18.7L11.54 18.7L12.89 10.88L5.39 10.88Z" /><path id="路径 26907" fill-rule="evenodd" style="fill:#000000" transform="translate(247.8450927734375 0)  rotate(0 8.3623046875 9.69482421875)" opacity="1" d="M3.5 1.88C4.22 1.27 5.04 0.8 5.98 0.48C6.91 0.16 7.93 0 9.03 0C10.16 0 11.2 0.17 12.14 0.5C13.09 0.84 13.9 1.32 14.58 1.94C15.26 2.57 15.79 3.33 16.16 4.24C16.54 5.14 16.72 6.16 16.72 7.31C16.72 7.6 16.71 7.93 16.69 8.31C16.67 8.68 16.62 9.07 16.55 9.46L16.06 12.16C15.84 13.3 15.51 14.32 15.04 15.21C14.57 16.11 13.99 16.86 13.28 17.49C12.56 18.1 11.73 18.58 10.77 18.9C9.82 19.23 8.75 19.39 7.55 19.39C6.46 19.39 5.45 19.23 4.53 18.91C3.61 18.59 2.81 18.13 2.14 17.51C1.47 16.9 0.95 16.15 0.57 15.26C0.19 14.38 0 13.37 0 12.25C0 11.89 0.01 11.5 0.02 11.09C0.04 10.69 0.09 10.29 0.16 9.91L0.65 7.21C0.86 6.06 1.2 5.04 1.69 4.14C2.18 3.25 2.78 2.49 3.5 1.88Z M12.5938 9.04309L12.1738 11.2931C11.8838 12.8731 11.3738 14.0431 10.6338 14.7831C9.90379 15.5331 8.98379 15.9131 7.87379 15.9131Q6.94379 15.9131 6.22379 15.6131C5.74379 15.4231 5.34379 15.1431 5.01379 14.7931C4.68379 14.4431 4.43379 14.0231 4.26379 13.5231C4.09379 13.0331 4.01379 12.4831 4.01379 11.8931C4.01379 11.5731 4.02379 11.2731 4.06379 10.9731C4.09379 10.6731 4.13379 10.3731 4.19379 10.0631L4.58379 7.91309C4.73379 7.11309 4.94379 6.43309 5.21379 5.86309C5.48379 5.29309 5.80379 4.82309 6.17379 4.46309C6.54379 4.10309 6.95379 3.83309 7.41379 3.67309C7.86379 3.50309 8.35379 3.41309 8.87379 3.41309C9.49379 3.41309 10.0338 3.51309 10.5038 3.71309C10.9838 3.90309 11.3838 4.17309 11.7138 4.52309C12.0438 4.87309 12.2838 5.29309 12.4538 5.78309C12.6238 6.26309 12.7138 6.79309 12.7138 7.37309C12.7138 7.45309 12.7138 7.56309 12.7038 7.69309C12.7038 7.83309 12.6938 7.97309 12.6838 8.12309C12.6738 8.27309 12.6638 8.42309 12.6538 8.58309C12.6338 8.74309 12.6138 8.90309 12.5938 9.04309Z " /><path id="路径 26908" fill-rule="evenodd" style="fill:#000000" transform="translate(329.1865234375 0.3466796875)  rotate(0 6.145935058593977 9.349365234375)" opacity="1" d="M4.55 15.22L12.29 15.22L11.7 18.7L0 18.7L3.29 0L7.26 0L4.55 15.22Z" /><path id="路径 26909" fill-rule="evenodd" style="fill:#000000" transform="translate(407.2864990234375 0)  rotate(0 8.364074707031023 9.69482421875)" opacity="1" d="M0.03 11.09C0.04 10.69 0.09 10.29 0.17 9.91L0.66 7.21C0.86 6.06 1.2 5.04 1.69 4.14C2.18 3.25 2.78 2.49 3.5 1.88C4.22 1.27 5.04 0.8 5.98 0.48C6.92 0.16 7.93 0 9.03 0C10.16 0 11.2 0.17 12.15 0.5Q13.56 1.01 14.58 1.94C15.26 2.57 15.79 3.33 16.17 4.24C16.54 5.14 16.73 6.16 16.73 7.31C16.73 7.6 16.72 7.93 16.69 8.31C16.67 8.68 16.62 9.07 16.55 9.46L16.06 12.16C15.84 13.3 15.51 14.32 15.04 15.21C14.58 16.11 13.99 16.86 13.28 17.49C12.56 18.1 11.73 18.58 10.77 18.9C9.82 19.23 8.75 19.39 7.55 19.39C6.46 19.39 5.46 19.23 4.53 18.91C3.61 18.59 2.82 18.13 2.14 17.51C1.47 16.9 0.95 16.15 0.57 15.26C0.19 14.38 0 13.37 0 12.25C0 11.89 0.01 11.5 0.03 11.09Z M7.88379 15.9131C7.25379 15.9131 6.70379 15.8131 6.22379 15.6131C5.74379 15.4231 5.34379 15.1431 5.01379 14.7931C4.68379 14.4431 4.43379 14.0231 4.26379 13.5231C4.09379 13.0331 4.01379 12.4831 4.01379 11.8931C4.01379 11.5731 4.03379 11.2731 4.06379 10.9731C4.09379 10.6731 4.13379 10.3731 4.19379 10.0631L4.59379 7.91309C4.73379 7.11309 4.94379 6.43309 5.21379 5.86309C5.48379 5.29309 5.80379 4.82309 6.17379 4.46309C6.54379 4.10309 6.95379 3.83309 7.41379 3.67309C7.86379 3.50309 8.35379 3.41309 8.87379 3.41309C9.49379 3.41309 10.0338 3.51309 10.5038 3.71309C10.9838 3.90309 11.3838 4.17309 11.7138 4.52309Q12.2088 5.04809 12.4638 5.78309C12.6338 6.26309 12.7138 6.79309 12.7138 7.37309C12.7138 7.45309 12.7138 7.56309 12.7038 7.69309C12.7038 7.83309 12.6938 7.97309 12.6838 8.12309C12.6738 8.27309 12.6638 8.42309 12.6538 8.58309C12.6338 8.74309 12.6138 8.90309 12.5938 9.04309L12.1838 11.2931C11.8838 12.8731 11.3738 14.0431 10.6438 14.7831C9.90379 15.5331 8.98379 15.9131 7.88379 15.9131Z " /></g></g><g opacity="1" transform="translate(385.0369577537972 2.5011625289916406)  rotate(0 108.59618664835136 43.830078125)"><path id="路径 26910" fill-rule="evenodd" style="fill:#000000" transform="translate(58.958330556698456 30.47021484375)  rotate(0 8.232188369800951 4.625732421875)" opacity="1" d="M2.33 0L15.45 0C16.08 0 16.56 0.57 16.45 1.19L15.14 8.42C15.04 8.9 14.63 9.25 14.14 9.25L1.01 9.25C0.38 9.25 -0.1 8.68 0.02 8.06L1.33 0.83C1.42 0.35 1.84 0 2.33 0Z" /><path id="路径 26911" fill-rule="evenodd" style="fill:#000000" transform="translate(54.383345941332436 56.412109375)  rotate(0 8.233491819335995 4.625244140625)" opacity="1" d="M15.45 0C16.09 0 16.56 0.57 16.45 1.19L15.13 8.42C15.05 8.9 14.63 9.25 14.14 9.25L1.01 9.25C0.38 9.25 -0.1 8.68 0.02 8.06L1.33 0.83C1.42 0.35 1.84 0 2.33 0L15.45 0Z" /><path id="路径 26912" fill-rule="evenodd" style="fill:#000000" transform="translate(28.609533795932975 0)  rotate(0 39.51054066560812 43.830078125)" opacity="1" d="M67.58 70.57C67.69 69.95 67.22 69.38 66.59 69.38L63.49 69.38C62.86 69.38 62.38 68.82 62.49 68.19L65.03 53.8C65.11 53.32 65.53 52.96 66.02 52.96L69.84 52.96C70.33 52.96 70.75 52.61 70.84 52.13L72.2 44.36C72.31 43.74 71.84 43.17 71.21 43.17L68.11 43.17C67.48 43.17 67 42.6 67.11 41.98L71.22 18.68C71.33 18.06 70.86 17.5 70.23 17.5L17.91 17.44L19.54 13.75C19.7 13.39 20.07 13.15 20.46 13.15L76.73 13.15C77.23 13.15 77.64 12.8 77.73 12.32L79.01 5.09C79.11 4.47 78.64 3.9 78.01 3.9L23.91 3.9L25.63 0L14.86 0.01C14.46 0.01 14.09 0.25 13.93 0.62L5.31 20.08C5.01 20.75 5.5 21.5 6.23 21.5L9.89 21.5C10.52 21.5 11 22.07 10.88 22.69L7.42 42.33C7.33 42.81 6.92 43.17 6.42 43.17L2.38 43.17C1.89 43.17 1.47 43.52 1.38 44L0.02 51.78C-0.09 52.4 0.38 52.96 1.01 52.96L4.34 52.96C4.97 52.96 5.45 53.53 5.34 54.15L1.16 77.83C1.09 78.24 1.4 78.62 1.82 78.62L49.22 78.63L48.83 80.82L44.51 86C43.96 86.66 44.43 87.66 45.28 87.66L55.28 87.66C55.58 87.66 55.87 87.52 56.06 87.29L59.77 82.83C59.88 82.69 59.96 82.53 59.99 82.36L60.65 78.63L65.31 78.63C65.8 78.63 66.22 78.28 66.31 77.8L67.58 70.57Z M57.1664 26.7524L22.4464 26.7524C21.9564 26.7524 21.5364 27.1024 21.4464 27.5824L18.9164 41.9824C18.7964 42.6024 19.2764 43.1724 19.9064 43.1724L54.6264 43.1724C55.1164 43.1724 55.5364 42.8124 55.6164 42.3324L58.1564 27.9324C58.2664 27.3224 57.7964 26.7524 57.1664 26.7524Z M52.5434 52.9629C53.1734 52.9629 53.6433 53.5329 53.5333 54.1529L50.9934 68.5429C50.9133 69.0329 50.4934 69.3829 50.0033 69.3829L15.2834 69.3829C14.6534 69.3829 14.1834 68.8129 14.2934 68.1929L16.8234 53.8029C16.9134 53.3129 17.3334 52.9629 17.8234 52.9629L52.5434 52.9629Z " /><path id="路径 26913" fill-rule="evenodd" style="fill:#000000" transform="translate(125.43865238758099 0.013671875)  rotate(0 8.293202779120293 10.320556640625)" opacity="1" d="M11.85 0.77L16.55 19.38C16.72 20.02 16.24 20.64 15.57 20.64L5.71 20.64C5.25 20.64 4.84 20.33 4.73 19.88L0.03 1.26C-0.13 0.62 0.35 0 1.01 0L10.87 0C11.34 0 11.74 0.32 11.85 0.77Z" /><path id="路径 26914" fill-rule="evenodd" style="fill:#000000" transform="translate(120.76563321853178 26.52685546875)  rotate(0 8.293237234808885 10.321044921875)" opacity="1" d="M16.56 19.38C16.72 20.02 16.23 20.64 15.58 20.64L5.71 20.64C5.25 20.64 4.85 20.33 4.73 19.88L0.03 1.26C-0.13 0.62 0.35 0 1.01 0L10.87 0C11.34 0 11.74 0.32 11.85 0.77L16.56 19.38Z" /><path id="路径 26915" fill-rule="evenodd" style="fill:#000000" transform="translate(108.92313714470424 53.6201171875)  rotate(0 13.106369216430835 17.019775390625)" opacity="1" d="M14.55 0.59C14.71 0.23 15.07 0 15.47 0L25.2 0C25.93 0 26.42 0.76 26.12 1.43L11.66 33.44C11.5 33.81 11.14 34.04 10.74 34.04L1.01 34.04C0.28 34.04 -0.21 33.28 0.09 32.61L14.55 0.59Z" /><path id="路径 26916" fill-rule="evenodd" style="fill:#000000" transform="translate(16.19502759266493 0)  rotate(0 7.5539462779080395 10.344317164033782)" opacity="1" d="M15.09 19.32C15.19 19.93 14.73 20.49 14.12 20.5L4.17 20.69C3.67 20.7 3.24 20.34 3.16 19.85L0.01 1.18C-0.09 0.56 0.38 0 1.01 0L10.99 0C11.48 0 11.9 0.36 11.98 0.85L15.09 19.32Z" /><path id="路径 26917" fill-rule="evenodd" style="fill:#000000" transform="translate(11.43924259733194 27.161343701667647)  rotate(0 7.5354573115520225 10.351596114562653)" opacity="1" d="M15.06 19.34C15.16 19.95 14.7 20.51 14.08 20.52L4.14 20.7C3.64 20.71 3.2 20.35 3.12 19.86L0.01 1.36C-0.09 0.76 0.37 0.2 0.99 0.19L10.93 0C11.43 -0.01 11.87 0.35 11.95 0.84L15.06 19.34Z" /><path id="路径 26918" fill-rule="evenodd" style="fill:#000000" transform="translate(0 53.6201171875)  rotate(0 12.607204010288683 17.019775390625)" opacity="1" d="M10.77 34.04L1.01 34.04C0.29 34.04 -0.2 33.31 0.08 32.64L13.51 0.62C13.67 0.25 14.04 0 14.45 0L24.2 0C24.92 0 25.41 0.74 25.13 1.4L11.7 33.42C11.54 33.79 11.17 34.04 10.77 34.04Z" /><path id="路径 26919" fill-rule="evenodd" style="fill:#000000" transform="translate(136.86045381763483 0)  rotate(0 40.165959739533946 43.830078125)" opacity="1" d="M15.18 0.85C15.26 0.37 15.68 0.01 16.17 0.01L79.32 0C79.95 0 80.42 0.57 80.32 1.19L78.75 10.11C78.67 10.6 78.25 10.95 77.76 10.95L26.21 10.95C25.73 10.95 25.31 11.3 25.22 11.79L13.97 75.59C13.86 76.21 14.34 76.77 14.97 76.77L65.79 76.77C66.42 76.77 66.9 77.34 66.79 77.96L65.23 86.82C65.14 87.31 64.72 87.66 64.23 87.66L0.67 87.66C0.25 87.66 -0.06 87.28 0.01 86.87L15.18 0.85Z" /></g><g opacity="1" transform="translate(0 0)  rotate(0 76.84600830078125 61.453125)"><path id="路径 26920" fill-rule="evenodd" fill="url(#linear_0)" transform="translate(0 0.0185546875)  rotate(0 65.50323486328102 61.44384765625)" opacity="1" d="M76.97 98.38C79.35 98.38 80.63 95.57 79.05 93.78L43.62 53.48C42.09 51.74 39.24 52.53 38.81 54.8L26.71 120.06C26.41 121.7 24.98 122.89 23.31 122.89L0 122.89L22.75 0L131.01 122.89L56.54 122.89C54.38 122.89 52.74 120.93 53.14 118.8L56.38 101.2C56.68 99.55 58.12 98.36 59.79 98.36L76.97 98.38Z" /><path id="路径 26921" fill-rule="evenodd" fill="url(#linear_1)" transform="translate(22.7510986328125 0)  rotate(0 65.470458984375 61.453125)" opacity="1" d="M99.6 27.91C99.91 26.21 98.61 24.64 96.88 24.63L75.61 24.59C74.61 24.59 73.67 24.16 73.01 23.42L56.45 4.63C54.87 2.83 56.15 0.02 58.53 0.02L130.94 0.01L108.26 122.91L0 0.02L24.63 0C25.63 0 26.57 0.43 27.23 1.18L87.31 69.48C88.83 71.21 91.69 70.43 92.11 68.16L99.6 27.91Z" /></g><g opacity="1" transform="translate(170.03421153724935 2.5011625289916406)  rotate(0 107.4422779722521 43.788818359375)"><path id="路径 26922" fill-rule="evenodd" style="fill:#000000" transform="translate(0 61.87451171875)  rotate(0 8.811066635202451 12.791259765625)" opacity="1" d="M0.69 25.58C0.2 25.58 -0.11 25.15 0.04 24.66L7.08 0.72C7.2 0.31 7.61 0 8.02 0L16.93 0C17.43 0 17.73 0.43 17.59 0.92L10.54 24.86C10.42 25.27 10.01 25.58 9.6 25.58L0.69 25.58Z" /><path id="路径 26923" fill-rule="evenodd" style="fill:#000000" transform="translate(39.03988972445018 61.87451171875)  rotate(0 5.987883510679239 12.791259765625)" opacity="1" d="M1.4 0.92C1.43 0.43 1.89 0 2.38 0L11.29 0C11.7 0 12 0.31 11.97 0.72L10.58 24.66C10.55 25.15 10.09 25.58 9.6 25.58L0.69 25.58C0.28 25.58 -0.02 25.27 0 24.86L1.4 0.92Z" /><path id="路径 26924" fill-rule="evenodd" style="fill:#000000" transform="translate(11.148272440085066 0)  rotate(0 27.207499213420647 7.545166015625)" opacity="1" d="M23.51 0.83C23.59 0.37 24.02 0 24.48 0L33.4 0C33.85 0 34.16 0.37 34.07 0.83L33.42 4.53L53.73 4.53C54.18 4.53 54.48 4.9 54.4 5.35L52.83 14.27C52.75 14.72 52.32 15.09 51.86 15.09L0.69 15.09C0.23 15.09 -0.07 14.72 0.01 14.27L1.59 5.35C1.66 4.9 2.1 4.53 2.55 4.53L22.86 4.53L23.51 0.83Z" /><path id="路径 26925" fill-rule="evenodd" style="fill:#000000" transform="translate(57.2418335174259 4.52734375)  rotate(0 24.532537246823836 41.46484375)" opacity="1" d="M10.58 82.11C10.49 82.56 10.06 82.93 9.61 82.93L0.69 82.93C0.24 82.93 -0.07 82.56 0.01 82.11L14.34 0.84C14.42 0.38 14.85 0.02 15.31 0.02L19.76 0.02C19.79 0.01 19.81 0 19.84 0L48.38 0C48.83 0 49.13 0.37 49.05 0.82L47.48 9.74C47.4 10.2 46.97 10.56 46.51 10.56L23.19 10.56L21.33 21.13L44.65 21.13C45.1 21.13 45.41 21.5 45.33 21.95L43.76 30.87C43.67 31.32 43.24 31.69 42.79 31.69L40.59 31.69L31.7 82.11C31.62 82.56 31.19 82.93 30.73 82.93L21.82 82.93C21.36 82.93 21.06 82.56 21.14 82.11L30.03 31.69L19.46 31.69L10.58 82.11Z" /><path id="路径 26926" fill-rule="evenodd" style="fill:#000000" transform="translate(148.0814687378113 40.74755859375)  rotate(0 29.809963623086674 23.4150390625)" opacity="1" d="M55.37 29.36L54.01 37.09L52.43 46.01C52.36 46.46 51.92 46.83 51.47 46.83L32.21 46.83C31.75 46.83 31.45 46.46 31.53 46.01L33.1 37.09C33.19 36.64 33.62 36.27 34.07 36.27L43.59 36.27L44.66 30.18L18.63 30.18L11.98 46.08C11.83 46.45 11.45 46.71 11.07 46.71L0.69 46.71C0.16 46.71 -0.15 46.21 0.07 45.7L12.86 15.09L5.89 15.09C5.44 15.09 5.13 14.72 5.21 14.27L6.79 5.35C6.87 4.89 7.3 4.53 7.76 4.53L28.19 4.53L28.84 0.82C28.92 0.37 29.35 0 29.81 0L38.73 0C39.18 0 39.48 0.37 39.4 0.82L38.75 4.53L58.93 4.53C59.38 4.53 59.69 4.89 59.61 5.35L58.03 14.27C57.95 14.72 57.52 15.09 57.07 15.09L24.94 15.09L23.04 19.62L56.27 19.62C56.72 19.62 57.02 19.98 56.94 20.44L56.41 23.46L55.37 29.36Z" /><path id="路径 26927" fill-rule="evenodd" style="fill:#000000" transform="translate(107.05739277474072 19.72021484375)  rotate(0 10.650767813313905 33.86865234375)" opacity="1" d="M0.02 66.9L13.14 0.81C13.23 0.36 13.66 0 14.11 0L20.61 0C21.07 0 21.38 0.38 21.28 0.84L8.16 66.94C8.07 67.38 7.64 67.74 7.2 67.74L0.69 67.74C0.23 67.74 -0.07 67.36 0.02 66.9Z" /><path id="路径 26928" fill-rule="evenodd" style="fill:#000000" transform="translate(134.7879787712509 19.72021484375)  rotate(0 9.329589549589514 33.86865234375)" opacity="1" d="M0.01 66.94L10.19 0.84C10.26 0.38 10.7 0 11.16 0L17.97 0C18.41 0 18.72 0.36 18.65 0.81L8.47 66.9C8.4 67.36 7.96 67.74 7.5 67.74L0.69 67.74C0.24 67.74 -0.06 67.38 0.01 66.94Z" /><path id="路径 26929" fill-rule="evenodd" style="fill:#000000" transform="translate(119.79880176934648 0)  rotate(0 18.90902298469564 43.72900390625)" opacity="1" d="M2.55 4.53L14.56 4.53L15.21 0.83C15.29 0.37 15.73 0 16.18 0L25.1 0C25.55 0 25.86 0.37 25.77 0.83L25.12 4.53L37.13 4.53C37.58 4.53 37.89 4.9 37.81 5.35L36.23 14.27C36.15 14.72 35.72 15.09 35.26 15.09L23.26 15.09L10.65 86.63C10.57 87.09 10.13 87.46 9.68 87.46L0.76 87.46C0.3 87.46 0 87.09 0.08 86.63L12.7 15.09L0.69 15.09C0.24 15.09 -0.07 14.72 0.01 14.27L1.59 5.35C1.67 4.9 2.1 4.53 2.55 4.53Z" /><path id="路径 26930" fill-rule="evenodd" style="fill:#000000" transform="translate(5.204829766906869 19.62060546875)  rotate(0 28.05066545229363 33.918701171875)" opacity="1" d="M2.37 19.62C1.92 19.62 1.62 19.25 1.7 18.79L3.27 9.87C3.35 9.42 3.78 9.05 4.24 9.05L12.39 9.05L11.21 1.07C11.13 0.54 11.62 0 12.18 0L21.01 0C21.37 0 21.65 0.23 21.7 0.56L22.96 9.05L36.46 9.05L40.94 0.55C41.11 0.22 41.46 0 41.81 0L50.63 0C51.2 0 51.5 0.56 51.22 1.09L47.03 9.05L55.41 9.05C55.86 9.05 56.17 9.42 56.09 9.87L54.52 18.79C54.44 19.25 54 19.62 53.55 19.62L33.24 19.62L31.91 27.16L50.71 27.16C51.16 27.16 51.47 27.53 51.39 27.98L49.81 36.9C49.73 37.36 49.3 37.72 48.85 37.72L30.05 37.72L24.89 67.01C24.81 67.47 24.37 67.84 23.92 67.84L15 67.84C14.55 67.84 14.24 67.47 14.32 67.01L19.49 37.72L0.69 37.72C0.24 37.72 -0.07 37.36 0.01 36.9L1.59 27.98C1.67 27.53 2.1 27.16 2.55 27.16L21.35 27.16L22.68 19.62L2.37 19.62Z" /><path id="路径 26931" fill-rule="evenodd" style="fill:#000000" transform="translate(160.46974312835619 0)  rotate(0 27.207406408074007 7.545166015625)" opacity="1" d="M1.59 5.35C1.66 4.9 2.1 4.53 2.55 4.53L22.86 4.53L23.51 0.83C23.59 0.37 24.02 0 24.48 0L33.4 0C33.85 0 34.15 0.37 34.07 0.83L33.42 4.53L53.72 4.53C54.18 4.53 54.48 4.9 54.4 5.35L52.83 14.27C52.75 14.72 52.32 15.09 51.86 15.09L0.69 15.09C0.23 15.09 -0.07 14.72 0.01 14.27L1.59 5.35Z" /><path id="路径 26932" fill-rule="evenodd" style="fill:#000000" transform="translate(155.94633713530675 19.62060546875)  rotate(0 27.605726272397305 10.5634765625)" opacity="1" d="M10.93 16.6L10.28 20.3C10.19 20.76 9.76 21.13 9.3 21.13L0.69 21.13C0.23 21.13 -0.07 20.76 0.01 20.3L0.81 15.78L1.65 11.01L2.38 6.86C2.46 6.4 2.89 6.03 3.35 6.03L11.05 6.03L9.96 1.13C9.83 0.59 10.34 0 10.92 0L19.71 0C20.04 0 20.31 0.21 20.38 0.52L21.62 6.03L36.43 6.03L39.22 0.56C39.39 0.22 39.75 0 40.1 0L48.93 0C49.49 0 49.79 0.55 49.52 1.08L46.99 6.03L54.52 6.03C54.98 6.03 55.28 6.4 55.2 6.86L54.47 11.01L53.63 15.78L52.83 20.3C52.75 20.76 52.32 21.13 51.86 21.13L42.94 21.13C42.49 21.13 42.19 20.76 42.27 20.3L42.92 16.6L10.93 16.6Z" /></g></g></svg>