<?xml version="1.0" standalone="no"?><!DOCTYPE svg PUBLIC "-//W3C//DTD SVG 1.1//EN" "http://www.w3.org/Graphics/SVG/1.1/DTD/svg11.dtd">
<svg t="1672107866692" class="icon" viewBox="0 0 1024 1024" version="1.1"
	xmlns="http://www.w3.org/2000/svg" p-id="7783"
	xmlns:xlink="http://www.w3.org/1999/xlink" width="200" height="200">
	<path d="M521 167.6l265.2 111.1L521 388.6 255.8 278.7 521 167.6m0-97.6L21.8 279.2 521 486l499.2-206.8L521 70z m158.6 400.3l97.6 40.9L512 621.1 246.8 511.2l106.6-44.7L236.3 418 12.8 511.7 512 718.5l499.2-206.8-214.5-89.9-117.1 48.5z m0 242.1l97.6 40.9L512 863.2 246.8 753.4l106.6-44.7-117.1-48.5-223.5 93.6L512 960.6l499.2-206.8-214.5-89.9-117.1 48.5z" p-id="7784" fill="#1296db"></path>
</svg>
