<?xml version="1.0" standalone="no"?><!DOCTYPE svg PUBLIC "-//W3C//DTD SVG 1.1//EN" "http://www.w3.org/Graphics/SVG/1.1/DTD/svg11.dtd">
<svg t="1672107640950" class="icon" viewBox="0 0 1024 1024" version="1.1"
	xmlns="http://www.w3.org/2000/svg" p-id="1817"
	xmlns:xlink="http://www.w3.org/1999/xlink" width="200" height="200">
	<path d="M948.8 766.5L820.7 547.7C842.6 504 852 454 852 407.1c0-187.5-153.1-337.5-340.6-337.5s-340.6 150-340.6 337.5c0 50 9.4 96.9 31.2 140.6L73.8 766.5c-3.1 3.1-3.1 9.4 0 15.6 3.1 6.3 6.2 9.4 12.5 9.4 0 0 81.2 15.6 162.5 34.4l109.4 121.9c3.1 3.1 9.4 6.2 12.5 6.2 6.2 0 9.4-3.1 12.5-6.2l115.6-200h25l115.6 200c3.1 3.1 6.2 6.2 12.5 6.2 3.1 0 9.4-3.1 12.5-6.2l109.4-121.9c84.4-15.6 162.5-34.4 162.5-34.4 6.2 0 9.4-3.1 12.5-9.4 3.2-6.3 3.2-12.5 0-15.6zM511.3 154c137.5 0 250 112.5 250 250s-112.5 250-250 250-250-112.5-250-250 112.5-250 250-250z" p-id="1818" fill="#1296db"></path>
	<path d="M320.7 404c0 105.3 85.3 190.7 190.5 190.7S701.9 509.4 702 404.1v-0.2c0-105.3-85.3-190.6-190.6-190.6S320.7 298.7 320.7 404c0-0.1 0 0 0 0z" p-id="1819" fill="#1296db"></path>
</svg>
